<svg width="128" height="128" viewBox="0 0 128 128" fill="none" xmlns="http://www.w3.org/2000/svg">
  <rect width="128" height="128" rx="28" fill="#003D2B"/>
  <path d="M18 72L52 42L82 49L110 44L120 61L111 72H96L88 56L79 69H66L53 54L39 72H18Z" fill="#F7F4EA"/>
  <path d="M67 56H79V69H67V56Z" fill="#003D2B"/>
  <path d="M73 44H77V52H73V44Z" fill="#F7F4EA"/>
  <path d="M56 60H63V67H56V60Z" fill="#F7F4EA"/>
  <path d="M56 69H63V76H56V69Z" fill="#F7F4EA"/>
  <path d="M65 60H72V67H65V60Z" fill="#F7F4EA"/>
  <path d="M65 69H72V76H65V69Z" fill="#F7F4EA"/>
  <path d="M87 61H93V67H87V61Z" fill="#F7F4EA"/>
  <path d="M87 69H93V75H87V69Z" fill="#F7F4EA"/>
  <path d="M95 61H101V67H95V61Z" fill="#F7F4EA"/>
  <path d="M95 69H101V75H95V69Z" fill="#F7F4EA"/>
</svg>
