<svg width="128" height="128" viewBox="0 0 128 128" fill="none" xmlns="http://www.w3.org/2000/svg">
  <rect width="128" height="128" rx="28" fill="#003D2B"/>
  <path d="M4 67L64 12L124 67H112V116H16V67H4Z" fill="#F7F4EA"/>
  <path d="M64 42C72.2843 42 79 48.7157 79 57H69.5C69.5 53.9624 67.0376 51.5 64 51.5C60.9624 51.5 58.5 53.9624 58.5 57C58.5 60.0376 60.9624 62.5 64 62.5H66C73.4558 62.5 79.5 68.5442 79.5 76C79.5 83.4558 73.4558 89.5 66 89.5H63V96H55V89.1244C49.1492 87.8079 44.75 82.5797 44.75 76H54.25C54.25 79.1756 56.8244 81.75 60 81.75H66C69.1756 81.75 71.75 79.1756 71.75 76C71.75 72.8244 69.1756 70.25 66 70.25H64C56.5442 70.25 50.5 64.2058 50.5 56.75C50.5 49.9787 55.4868 44.3722 62 43.4047V36H70V42.8756C75.8508 44.1921 80.25 49.4203 80.25 56H70.75C70.75 52.8244 68.1756 50.25 65 50.25H63.5L63.5 50.2633C63.665 50.2545 63.8311 50.25 64 50.25V42Z" fill="#C9A227"/>
  <path d="M62 34H66V98H62V34Z" fill="#E7C45A"/>
</svg>
